<svg height="512pt" viewBox="-29 0 512 512" width="512pt" xmlns="http://www.w3.org/2000/svg"><path d="m371.472656 256c0 79.6875-64.601562 144.289062-144.289062 144.289062-79.691406 0-144.289063-64.601562-144.289063-144.289062s64.597657-144.289062 144.289063-144.289062c79.6875 0 144.289062 64.601562 144.289062 144.289062zm0 0" fill="#eceaec"/><path d="m313.582031 206.117188c-13.375-9.066407-27.515625-17.9375-42.3125-26.480469-14.792969-8.542969-29.546875-16.355469-44.085937-23.402344-14.539063 7.046875-29.292969 14.859375-44.089844 23.402344s-28.9375 17.414062-42.3125 26.480469c-1.164062 16.117187-1.777344 32.796874-1.777344 49.882812s.613282 33.765625 1.777344 49.882812c13.375 9.066407 27.515625 17.9375 42.3125 26.480469s29.550781 16.351563 44.089844 23.402344c14.539062-7.046875 29.289062-14.859375 44.085937-23.402344s28.9375-17.414062 42.3125-26.480469c1.164063-16.117187 1.777344-32.796874 1.777344-49.882812s-.613281-33.765625-1.777344-49.882812zm0 0" fill="#fff"/><path d="m267.265625 243.976562c0 22.136719-17.945313 40.082032-40.082031 40.082032-22.136719 0-40.082032-17.945313-40.082032-40.082032 0-22.136718 17.945313-40.082031 40.082032-40.082031 22.136718 0 40.082031 17.945313 40.082031 40.082031zm0 0" fill="#ffeaa8"/><path d="m247.222656 243.976562c0 11.066407-8.972656 20.039063-20.039062 20.039063-11.070313 0-20.039063-8.972656-20.039063-20.039063 0-11.066406 8.96875-20.039062 20.039063-20.039062 11.066406 0 20.039062 8.972656 20.039062 20.039062zm0 0" fill="#fff5d7"/><path d="m211.152344 280.800781v11.273438c0 8.851562 7.175781 16.03125 16.03125 16.03125 8.851562 0 16.03125-7.179688 16.03125-16.03125v-11.273438zm0 0" fill="#c8c5c9"/><path d="m388.507812 256c10.226563-9.664062 19.519532-19.363281 27.730469-28.992188 34.539063-40.492187 46.132813-75.652343 32.648438-99.007812-13.488281-23.355469-49.734375-30.898438-102.066407-21.230469-12.453124 2.296875-25.507812 5.496094-39 9.527344-7.886718-33.210937-18.582031-61.113281-31.070312-80.941406-14.5625-23.128907-31.703125-35.355469-49.566406-35.355469-26.96875 0-51.621094 27.621094-69.417969 77.777344-4.234375 11.925781-7.988281 24.824218-11.246094 38.511718-13.480469-4.027343-26.53125-7.222656-38.972656-9.519531-52.335937-9.664062-88.582031-2.125-102.066406 21.230469s-1.890625 58.515625 32.644531 99.007812c8.210938 9.628907 17.503906 19.328126 27.734375 28.992188-10.230469 9.664062-19.523437 19.363281-27.734375 28.992188-34.535156 40.492187-46.128906 75.652343-32.644531 99.007812 9.652343 16.71875 30.96875 25.335938 61.503906 25.335938 12.121094 0 25.691406-1.359376 40.558594-4.105469 12.453125-2.296875 25.511719-5.496094 39-9.527344 7.878906 33.183594 18.566406 61.070313 31.039062 80.894531 14.574219 23.160156 31.726563 35.402344 49.601563 35.402344 26.96875 0 51.621094-27.621094 69.417968-77.777344 4.230469-11.925781 7.988282-24.824218 11.242188-38.511718 13.484375 4.027343 26.53125 7.222656 38.976562 9.519531 14.871094 2.746093 28.4375 4.105469 40.558594 4.105469 30.53125-.003907 51.855469-8.617188 61.507813-25.335938 13.480469-23.355469 1.886719-58.515625-32.648438-99.007812-8.210937-9.628907-17.503906-19.328126-27.730469-28.992188zm-38.964843-134.480469c14.148437-2.613281 26.957031-3.898437 38.183593-3.898437 24.441407 0 41.367188 6.101562 48.167969 17.878906 9.921875 17.1875-1.402343 46.992188-31.070312 81.773438-8.085938 9.480468-17.28125 19.046874-27.421875 28.582031-16.914063-14.976563-35.972656-29.757813-56.632813-43.921875-1.171875-15.042969-2.8125-29.785156-4.972656-44.105469-.617187-4.09375-4.433594-6.914063-8.53125-6.296875s-6.917969 4.4375-6.300781 8.53125c1.539062 10.207031 2.796875 20.648438 3.824218 31.25-9.644531-6.21875-19.582031-12.289062-29.769531-18.171875-10.199219-5.890625-20.441406-11.464844-30.660156-16.714844 37.21875-16.972656 73.3125-29.019531 105.183594-34.90625zm-82.019531 204.347657c-13.4375 7.761718-26.929688 14.957031-40.339844 21.558593-13.410156-6.601562-26.902344-13.800781-40.339844-21.558593-13.429688-7.753907-26.40625-15.835938-38.824219-24.144532-1-14.96875-1.515625-30.238281-1.515625-45.722656 0-15.515625.511719-30.800781 1.5-45.714844 12.421875-8.3125 25.402344-16.394531 38.839844-24.152344 13.433594-7.761718 26.929688-14.957031 40.339844-21.558593 13.410156 6.601562 26.902344 13.800781 40.339844 21.558593 13.425781 7.75 26.398437 15.832032 38.8125 24.136719 1 14.96875 1.523437 30.230469 1.523437 45.730469 0 15.515625-.507813 30.800781-1.5 45.710938-12.421875 8.316406-25.402344 16.398437-38.835937 24.15625zm37.304687-5.207032c-1.875 19.5-4.59375 38.214844-8.113281 55.773438-16.964844-5.730469-34.53125-12.730469-52.355469-20.859375 10.21875-5.25 20.460937-10.824219 30.664063-16.714844 10.199218-5.890625 20.148437-11.972656 29.804687-18.199219zm-172.460937-29.742187c-15.953126-11.375-30.800782-23.089844-44.25-34.917969 13.449218-11.828125 28.292968-23.539062 44.246093-34.910156-.566406 11.472656-.859375 23.128906-.859375 34.910156 0 11.769531.300782 23.417969.863282 34.917969zm46.976562-117.777344c-10.199219 5.890625-20.148438 11.972656-29.804688 18.199219 1.871094-19.5 4.589844-38.214844 8.109376-55.773438 16.96875 5.730469 34.535156 12.730469 52.355468 20.859375-10.21875 5.25-20.457031 10.824219-30.660156 16.714844zm142.644531 47.9375c15.957031 11.375 30.808594 23.089844 44.261719 34.921875-13.449219 11.828125-28.296875 23.539062-44.246094 34.910156.5625-11.472656.855469-23.128906.855469-34.910156 0-11.777344-.304687-23.425781-.871094-34.921875zm-150.089843-138.285156c15.289062-43.082031 35.4375-67.792969 55.285156-67.792969 15.722656 0 28.730468 15.417969 36.875 28.347656 11.753906 18.664063 21.890625 45.402344 29.421875 77.496094-21.410157 7.152344-43.722657 16.261719-66.296875 27.0625-22.585938-10.808594-44.90625-19.917969-66.328125-27.074219 3.1875-13.550781 6.875-26.292969 11.042969-38.039062zm-122.359376 134.480469c-29.667968-34.78125-40.992187-64.585938-31.070312-81.773438 6.800781-11.777344 23.722656-17.878906 48.171875-17.878906 11.222656 0 24.035156 1.285156 38.179687 3.898437 12.257813 2.265625 25.140626 5.441407 38.464844 9.457031-4.507812 22.128907-7.78125 46.015626-9.714844 70.976563-20.652343 14.15625-39.703124 28.933594-56.609374 43.90625-10.140626-9.539063-19.332032-19.105469-27.421876-28.585937zm55.28125 173.207031c-44.953124 8.300781-76.425781 3.207031-86.347656-13.980469-9.925781-17.1875 1.398438-46.992188 31.066406-81.773438 8.089844-9.480468 17.28125-19.046874 27.421876-28.582031 16.917968 14.976563 35.976562 29.761719 56.636718 43.921875 1.09375 14.003906 2.585938 27.75 4.53125 41.128906.542969 3.734376 3.746094 6.421876 7.414063 6.421876.359375 0 .722656-.023438 1.085937-.078126 4.101563-.59375 6.941406-4.398437 6.34375-8.5-1.347656-9.277343-2.460937-18.746093-3.390625-28.347656 9.644531 6.214844 19.578125 12.289063 29.765625 18.167969 10.199219 5.890625 20.441406 11.464844 30.660156 16.714844-37.222656 16.972656-73.3125 29.019531-105.1875 34.90625zm177.644532 38.726562c-15.285156 43.082031-35.4375 67.792969-55.28125 67.792969-15.738282 0-28.753906-15.4375-36.90625-28.390625-11.742188-18.664063-21.867188-45.382813-29.390625-77.453125 21.410156-7.152344 43.722656-16.257812 66.296875-27.058594 22.582031 10.804688 44.90625 19.914063 66.324218 27.070313-3.1875 13.550781-6.875 26.292969-11.042968 38.039062zm153.429687-52.707031c-9.921875 17.1875-41.398437 22.28125-86.351562 13.980469-12.253907-2.265625-25.136719-5.441407-38.464844-9.457031 4.511719-22.128907 7.785156-46.015626 9.71875-70.976563 20.648437-14.15625 39.699219-28.933594 56.609375-43.90625 10.136719 9.535156 19.332031 19.101563 27.421875 28.585937 29.664063 34.78125 40.988281 64.585938 31.066406 81.773438zm0 0"/><path d="m227.183594 196.394531c-26.238282 0-47.582032 21.34375-47.582032 47.582031 0 17.679688 9.699219 33.125 24.046876 41.328126v6.769531c0 10.351562 6.726562 19.160156 16.035156 22.296875v1.75c0 4.144531 3.355468 7.5 7.5 7.5 4.140625 0 7.5-3.355469 7.5-7.5v-1.75c9.304687-3.136719 16.03125-11.945313 16.03125-22.296875v-6.769531c14.347656-8.203126 24.046875-23.648438 24.046875-41.328126.003906-26.238281-21.34375-47.582031-47.578125-47.582031zm8.53125 95.679688c0 4.703125-3.828125 8.53125-8.53125 8.53125s-8.53125-3.828125-8.53125-8.53125v-1.296875c2.769531.503906 5.617187.78125 8.53125.78125 2.914062 0 5.761718-.277344 8.53125-.78125zm3.097656-17.671875 7.417969-19.777344c1.453125-3.878906-.511719-8.199219-4.390625-9.65625-3.878906-1.453125-8.199219.511719-9.65625 4.390625l-5 13.335937-5.003906-13.335937c-1.453126-3.878906-5.777344-5.84375-9.65625-4.390625-3.875 1.457031-5.84375 5.777344-4.386719 9.65625l7.417969 19.777344c-12.238282-4.691406-20.953126-16.558594-20.953126-30.425782 0-17.964843 14.617188-32.582031 32.582032-32.582031s32.582031 14.617188 32.582031 32.582031c0 13.867188-8.714844 25.734376-20.953125 30.425782zm0 0"/></svg>